<?xml version="1.0" standalone="no"?>
<!DOCTYPE svg PUBLIC "-//W3C//DTD SVG 20010904//EN"
 "http://www.w3.org/TR/2001/REC-SVG-20010904/DTD/svg10.dtd">
<svg version="1.0" xmlns="http://www.w3.org/2000/svg"
 width="512.000000pt" height="512.000000pt" viewBox="0 0 512.000000 512.000000"
 preserveAspectRatio="xMidYMid meet">
<metadata>
Created by potrace 1.11, written by Peter Selinger 2001-2013
</metadata>
<g transform="translate(0.000000,512.000000) scale(0.100000,-0.100000)"
fill="#000000" stroke="none">
<path d="M810 5109 c-345 -57 -639 -303 -757 -634 -50 -143 -48 -46 -48 -1900
0 -946 3 -1740 7 -1765 54 -346 310 -648 643 -758 147 -49 62 -47 1895 -47
949 0 1741 3 1760 6 314 57 572 249 710 527 42 86 77 194 88 277 4 28 7 824 7
1770 l0 1720 -23 85 c-60 223 -195 420 -378 553 -99 71 -254 137 -382 161 -66
13 -314 15 -1772 14 -958 0 -1719 -4 -1750 -9z m627 -536 c160 -159 620 -614
1022 -1013 l731 -724 0 -308 c0 -169 -2 -308 -5 -308 -5 0 -627 617 -1480
1468 -78 78 -146 142 -150 142 -8 0 0 -2172 8 -2260 3 -30 8 -91 12 -135 5
-78 9 -112 20 -205 17 -137 33 -221 61 -334 13 -54 23 -101 20 -103 -6 -6
-467 -6 -473 1 -11 10 -29 134 -49 336 -5 43 -13 3730 -9 3730 1 0 132 -129
292 -287z m2484 -254 c4 -7 10 -37 15 -68 4 -31 8 -63 9 -71 3 -17 14 -118 22
-200 3 -30 6 -880 7 -1887 l1 -1833 -48 48 c-155 152 -703 694 -1306 1292
l-691 684 0 314 0 313 243 -241 c133 -132 499 -497 813 -810 314 -314 574
-570 578 -570 8 0 1 2162 -7 2255 -3 28 -8 91 -11 140 -4 50 -9 101 -11 115
-2 14 -7 52 -10 85 -14 118 -30 206 -59 335 -13 58 -23 107 -21 110 2 3 108 4
236 3 166 -2 235 -6 240 -14z"/>
</g>
</svg>
